<svg class="{{ with .class }}{{ . }} {{ end }}icon icon-mastodon"
xmlns="http://www.w3.org/2000/svg" xmlns:xlink="http://www.w3.org/1999/xlink" width="21" height="24" viewBox="0 0 21 24" version="1.1">
<g id="surface1">
<path d="M 20.296875 8.394531 C 20.296875 3.839844 17.308594 2.503906 17.308594 2.503906 C 14.378906 1.160156 6.597656 1.171875 3.695312 2.503906 C 3.695312 2.503906 0.707031 3.839844 0.707031 8.394531 C 0.707031 13.820312 0.398438 20.554688 5.660156 21.949219 C 7.558594 22.449219 9.1875 22.558594 10.503906 22.480469 C 12.882812 22.351562 14.21875 21.632812 14.21875 21.632812 L 14.140625 19.902344 C 14.140625 19.902344 12.4375 20.4375 10.527344 20.378906 C 8.632812 20.3125 6.636719 20.171875 6.324219 17.847656 C 6.296875 17.628906 6.28125 17.414062 6.28125 17.195312 C 10.296875 18.175781 13.71875 17.621094 14.660156 17.507812 C 17.292969 17.195312 19.582031 15.574219 19.875 14.089844 C 20.335938 11.757812 20.296875 8.394531 20.296875 8.394531 Z M 16.777344 14.265625 L 14.589844 14.265625 L 14.589844 8.910156 C 14.589844 6.582031 11.589844 6.492188 11.589844 9.234375 L 11.589844 12.164062 L 9.417969 12.164062 L 9.417969 9.234375 C 9.417969 6.492188 6.417969 6.582031 6.417969 8.910156 L 6.417969 14.265625 L 4.226562 14.265625 C 4.226562 8.539062 3.984375 7.332031 5.089844 6.0625 C 6.304688 4.707031 8.832031 4.617188 9.957031 6.347656 L 10.5 7.261719 L 11.046875 6.347656 C 12.175781 4.609375 14.707031 4.714844 15.914062 6.0625 C 17.023438 7.339844 16.773438 8.546875 16.773438 14.265625 Z M 16.777344 14.265625 "/>
</g>
</svg>
