<svg class="{{ with .class }}{{ . }} {{ end }}icon icon-youtube" width="24" height="24" viewBox="0 0 24 18" xml:space="preserve" xmlns="http://www.w3.org/2000/svg" xmlns:cc="http://creativecommons.org/ns#" xmlns:dc="http://purl.org/dc/elements/1.1/" xmlns:rdf="http://www.w3.org/1999/02/22-rdf-syntax-ns#"><metadata><rdf:RDF><dc:type rdf:resource="http://purl.org/dc/dcmitype/StillImage"/></rdf:RDF></metadata><defs><clipPath id="a"><path d="m0 2h4100v3080h-4100z"/></clipPath></defs><g transform="matrix(.058593 0 0 -.058593 0 18.059)"><g transform="scale(.1)"><g clip-path="url(#a)"><path d="m3924.8 2953.6c-574.54 82.62-1209.3 128.44-1876.8 128.44s-1302.2-45.82-1876.8-128.44c-110.16-430.9-171.25-906.99-171.25-1407.6 0-500.54 61.09-976.64 171.25-1407.5 574.53-82.621 1209.3-128.44 1876.8-128.44s1302.2 45.816 1876.8 128.44c110.11 430.89 171.25 906.99 171.25 1407.5 0 500.59-61.14 976.68-171.25 1407.6zm-2388.8-2175.5v1536l1280-768.01z"/></g></g></g></svg>
